<svg xmlns="http://www.w3.org/2000/svg" viewBox="0 0 681.05212 550.36829" width="64" height="64">
  <defs>
    <style>
      .icon { fill: #D4820A; }
      @media (prefers-color-scheme: dark) {
        .icon { fill: #D4820A; }
      }
    </style>
  </defs>
  <g transform="translate(-299.5,-146.63174)">
    <path class="icon" fill-rule="evenodd" d="m 778.12194,615.25 c 0.0755,-50.5829 0.45265,-79.48052 0.98937,-75.79724 1.17541,8.06638 2.48779,11.91381 6.6346,19.45029 7.28186,13.2342 21.80944,24.14184 36.86737,27.6809 9.36853,2.20187 23.7026,1.48657 31.88672,-1.59122 22.26783,-8.37422 38.39009,-30.90735 38.48264,-53.78489 0.0233,-5.75948 -2.60777,-18.1675 -5.07073,-23.91334 -9.29394,-21.68189 -33.45893,-35.98074 -57.3846,-33.95548 -25.20959,2.13394 -47.19733,22.65752 -51.43255,48.00767 -1.18921,7.11812 -1.22578,2.40199 -1.2917,-166.59669 L 777.74696,211 h -8.30019 -8.30019 l -2.42854,-5.25 C 743.46499,172.77612 702.67238,165.11014 677.5,190.48703 c -6.8546,6.91029 -11.74094,15.78668 -14.41664,26.18888 -1.42721,5.54854 -4.46468,11.41554 -14.08161,27.19932 -6.74403,11.06862 -12.54085,20.11267 -12.88181,20.09789 -0.34097,-0.0148 -1.92753,-2.95376 -3.5257,-6.53105 -2.14689,-4.80554 -4.61158,-8.09988 -9.43748,-12.61428 -19.76766,-18.49167 -48.64983,-18.27184 -67.50914,0.51382 C 545.75457,255.19603 541,266.44602 541,280 c 0,13.22354 4.5207,24.15165 14.35388,34.69832 6.97093,7.47674 14.62418,11.5702 26.14612,13.98463 4.4,0.92203 8.15692,1.78998 8.34871,1.92878 0.19179,0.1388 -4.35236,7.82044 -10.09811,17.07032 -5.74575,9.24987 -15.04021,24.58045 -20.65436,34.06795 -5.61415,9.4875 -10.39594,17.25 -10.62621,17.25 -1.37486,0 -3.99203,-7.87923 -6.05675,-18.23442 C 539.62362,366.77462 535.36399,355.58115 525.75845,337 518.58816,323.12965 517.18261,321.09429 503.5,304.76789 c -7.09854,-8.47014 -20.05649,-29.71985 -22.8305,-37.4397 -0.68811,-1.91494 0.33578,-3.98401 5.97164,-12.06752 36.46529,-52.30201 94.25519,-90.17371 157.43704,-103.17388 24.46724,-5.03433 64.43953,-6.94994 87.42182,-4.18957 57.0979,6.85797 104.96108,26.41911 143.5,58.64681 9.26035,7.74385 27.38148,26.26103 36.16556,36.95597 19.05313,23.19789 42.18714,63.33468 52.22495,90.60869 17.81314,48.40053 21.88715,101.44109 11.62315,151.32491 -8.95683,43.53093 -29.23224,86.12925 -56.86776,119.4783 C 893.42776,634.74043 856.61589,663.15573 819.5,681.05726 805.89369,687.61979 782.02612,697 778.93437,697 c -0.57253,0 -0.88715,-31.65793 -0.81243,-81.75 z M 895.75756,446.64894 c 14.70674,-4.97564 26.15454,-16.54575 31.2053,-31.53869 2.80862,-8.33725 2.79988,-21.90919 -0.0195,-30.27836 -5.47578,-16.25461 -18.23043,-27.8917 -35.40347,-32.30144 -16.03064,-4.11639 -33.01632,0.89991 -45.5476,13.45137 -9.82392,9.83974 -13.96856,19.93334 -13.96856,34.01818 0,9.08745 1.6756,15.77976 5.96665,23.83059 10.82272,20.30551 35.90732,30.21406 57.76717,22.81835 z M 847.76027,327.49443 c 15.1282,-3.56683 27.42765,-13.39806 34.01125,-27.18595 3.69302,-7.73423 3.72848,-7.92806 3.72848,-20.38387 v -12.57539 l -4.24088,-8.55845 c -8.59358,-17.34256 -25.15203,-27.7249 -44.29902,-27.77599 -15.96645,-0.0426 -33.53332,9.86897 -41.458,23.39143 -8.06728,13.76577 -8.64818,33.5707 -1.40977,48.0642 3.21032,6.42805 11.62472,15.39956 18.07271,19.2693 6.0913,3.65567 18.09152,7.13009 24.83496,7.19045 2.475,0.0222 7.31712,-0.62393 10.76027,-1.43573 z M 299.63213,692.74979 c 0.0727,-1.78738 0.18517,-110.68729 0.25,-241.99979 L 300,212 h 58.41136 58.41136 l 5.96619,11.25 c 3.2814,6.1875 9.67312,18.225 14.20381,26.75 10.12126,19.0443 16.01154,30.20389 23.48809,44.5 3.16402,6.05 9.23334,17.525 13.48739,25.5 4.25405,7.975 12.82854,24.175 19.05443,36 6.22588,11.825 16.11473,30.5 21.97521,41.5 5.86047,11 15.08969,28.4375 20.50937,38.75 5.41968,10.3125 10.1102,18.73049 10.42338,18.70664 0.31317,-0.0238 7.14335,-10.93634 15.17818,-24.25 13.87624,-22.99285 41.13132,-67.74327 53.11288,-87.20664 3.0472,-4.95 16.23613,-26.55 29.30874,-48 13.07261,-21.45 27.50896,-45.075 32.08077,-52.5 4.57182,-7.425 10.67813,-17.4375 13.56958,-22.25 L 694.43792,212 H 725.71896 757 V 454 696 H 710 663 V 564.3 c 0,-78.88586 -0.36394,-131.31903 -0.90754,-130.75 -0.49914,0.5225 -7.97757,14.9 -16.61872,31.95 -18.80255,37.09961 -36.91566,72.63976 -55.16986,108.25 L 576.84785,600 h -42.90614 -42.90614 l -6.62096,-13.75 c -3.64154,-7.5625 -17.10201,-35.8 -29.91217,-62.75 -12.81016,-26.95 -26.31235,-55.3 -30.00487,-63 -3.69253,-7.7 -9.61656,-20.3 -13.16451,-28 -3.54796,-7.7 -6.87433,-14.4275 -7.39195,-14.95 C 403.35292,416.95625 403,468.98776 403,556.3 V 696 l -51.75,-2.1e-4 -51.75,-2.1e-4 z"/>
  </g>
</svg>